<?xml version="1.0" encoding="utf-8"?>
<!-- Generator: Adobe Illustrator 12.0.1, SVG Export Plug-In  -->
<!DOCTYPE svg PUBLIC "-//W3C//DTD SVG 1.1//EN" "http://www.w3.org/Graphics/SVG/1.1/DTD/svg11.dtd" [
	<!ENTITY ns_flows "http://ns.adobe.com/Flows/1.0/">
	<!ENTITY ns_svg "http://www.w3.org/2000/svg">
	<!ENTITY ns_xlink "http://www.w3.org/1999/xlink">
]>
<svg  version="1.1" xmlns="&ns_svg;" xmlns:xlink="&ns_xlink;" xmlns:a="http://ns.adobe.com/AdobeSVGViewerExtensions/3.0/"
	 width="540" height="243" viewBox="-9.301 0.018 540 243" enable-background="new -9.301 0.018 540 243" xml:space="preserve">
<defs>
</defs>
<text transform="matrix(1 0 0 1 69.1631 111.4917)" font-family="'ArialMT'" font-size="24">u</text>
<text transform="matrix(1 0 0 1 70.5107 144.4922)" font-family="'ArialMT'" font-size="24">s</text>
<text transform="matrix(1 0 0 1 451.6523 22.9956)" font-family="'ArialMT'" font-size="24">u</text>
<text transform="matrix(1 0 0 1 451.6523 55.9956)" font-family="'ArialMT'" font-size="24">d</text>
<text transform="matrix(1 0 0 1 451.6523 111.4917)" font-family="'ArialMT'" font-size="24">u</text>
<text transform="matrix(1 0 0 1 451.6523 144.4922)" font-family="'ArialMT'" font-size="24">d</text>
<text transform="matrix(1 0 0 1 451.6523 201.9863)" font-family="'ArialMT'" font-size="24">d</text>
<text transform="matrix(1 0 0 1 451.6523 234.9863)" font-family="'ArialMT'" font-size="24">u</text>
<polyline fill="none" stroke="#000000" points="90.162,103.491 184.657,103.491 442.645,17.995 "/>
<polyline fill="none" stroke="#000000" points="90.162,139.994 184.657,139.994 442.645,225.49 "/>
<polyline fill="none" stroke="#000000" points="442.645,103.491 279.152,103.491 442.645,46.493 "/>
<polyline fill="none" stroke="#010101" points="442.645,134.989 375.898,146.238 442.645,190.486 "/>
<g>
	<g>
		<line fill="none" x1="279.152" y1="103.491" x2="184.657" y2="139.994"/>
		<g>
			<g>
				<g>
					<path fill="none" stroke="#444DA1" d="M278.777,103.636c0,0,0.322,16.894-11.718,4.526"/>
					<path fill="none" stroke="#444DA1" d="M255.341,112.689c0,0-0.322-16.894,11.719-4.527"/>
				</g>
				<g>
					<path fill="none" stroke="#444DA1" d="M231.904,121.743c0,0-0.322-16.894,11.719-4.527"/>
					<path fill="none" stroke="#444DA1" d="M255.341,112.689c0,0,0.322,16.894-11.718,4.527"/>
				</g>
			</g>
			<g>
				<g>
					<path fill="none" stroke="#444DA1" d="M185.032,139.85c0,0-0.323-16.894,11.717-4.526"/>
					<path fill="none" stroke="#444DA1" d="M208.469,130.796c0,0,0.321,16.895-11.719,4.527"/>
				</g>
				<g>
					<path fill="none" stroke="#444DA1" d="M231.904,121.743c0,0,0.322,16.894-11.718,4.527"/>
					<path fill="none" stroke="#444DA1" d="M208.469,130.796c0,0-0.323-16.894,11.717-4.526"/>
				</g>
			</g>
		</g>
	</g>
</g>
<g>
	<g>
		<line fill="none" x1="371.032" y1="147.685" x2="351.365" y2="105.351"/>
		<g>
			<path fill="none" stroke="#0D9948" stroke-width="0.7" d="M371.222,137.303c2.881,6.201,1.271,8.073-1.247,9.242
				c-2.517,1.169-4.29,0.419-5.032-1.179c-0.742-1.597-0.171-3.437,2.346-4.605s4.986-1.193,7.867,5.009"/>
		</g>
		<g>
			<path fill="none" stroke="#0D9948" stroke-width="0.7" d="M367.288,128.836c2.882,6.201,1.271,8.073-1.246,9.242
				s-4.291,0.419-5.033-1.178c-0.741-1.598-0.171-3.438,2.346-4.606s4.986-1.193,7.867,5.009"/>
		</g>
		<g>
			<path fill="none" stroke="#0D9948" stroke-width="0.7" d="M363.355,120.369c2.881,6.201,1.27,8.073-1.247,9.242
				s-4.291,0.419-5.032-1.178c-0.742-1.598-0.172-3.438,2.345-4.606s4.986-1.193,7.867,5.009"/>
		</g>
		<g>
			<path fill="none" stroke="#0D9948" stroke-width="0.7" d="M359.422,111.902c2.881,6.202,1.27,8.073-1.247,9.242
				c-2.517,1.169-4.29,0.419-5.032-1.178s-0.172-3.437,2.346-4.605c2.517-1.169,4.985-1.193,7.867,5.008"/>
		</g>
		<g>
			<path fill="none" stroke="#0D9948" stroke-width="0.7" d="M355.488,103.436c2.881,6.202,1.27,8.073-1.247,9.242
				c-2.517,1.169-4.29,0.419-5.032-1.178s-0.171-3.437,2.346-4.606c2.517-1.169,4.986-1.193,7.867,5.008"/>
		</g>
	</g>
</g>
<g>
	<line x1="451.652" y1="36.018" x2="464.699" y2="36.018"/>
	<g>
		<line fill="none" x1="451.652" y1="36.018" x2="464.699" y2="36.018"/>
		<path fill="#221E1F" d="M451.558,37.013c4.35,0,8.698,0,13.047,0c1.28,0,1.478-1.991,0.189-1.991c-4.35,0-8.698,0-13.047,0
			C450.467,35.022,450.27,37.013,451.558,37.013L451.558,37.013z"/>
	</g>
</g>
<g>
	<line x1="451.652" y1="124.018" x2="464.699" y2="124.018"/>
	<g>
		<line fill="none" x1="451.652" y1="124.018" x2="464.699" y2="124.018"/>
		<path fill="#221E1F" d="M451.558,125.014c4.35,0,8.698,0,13.047,0c1.28,0,1.478-1.992,0.189-1.992c-4.35,0-8.698,0-13.047,0
			C450.467,123.022,450.27,125.014,451.558,125.014L451.558,125.014z"/>
	</g>
</g>
<g>
	<line x1="451.652" y1="216.018" x2="464.699" y2="216.018"/>
	<g>
		<line fill="none" x1="451.652" y1="216.018" x2="464.699" y2="216.018"/>
		<path fill="#221E1F" d="M451.558,217.014c4.35,0,8.698,0,13.047,0c1.28,0,1.478-1.992,0.189-1.992c-4.35,0-8.698,0-13.047,0
			C450.467,215.021,450.27,217.014,451.558,217.014L451.558,217.014z"/>
	</g>
</g>
<text transform="matrix(1 0 0 1 249.6523 140.9863)" fill="#444DA1" font-family="'ArialMT'" font-size="24">W</text>
<text transform="matrix(1 0 0 1 336.6523 138.9863)" fill="#0D9948" font-family="'ArialMT'" font-size="24">g</text>
<g>
	<text transform="matrix(1 0 0 1 272.6992 128.0176)" fill="#444DA1" font-family="'ArialMT'" font-size="18">+</text>
</g>
<path d="M509.432,16.174v4.25h-7.094c-0.688,4.477-1.031,8.766-1.031,12.871c0,2.014,0.35,3.455,1.051,4.324
	c0.699,0.87,1.576,1.305,2.627,1.305c0.836,0,1.565-0.293,2.188-0.881c0.623-0.588,1.021-1.439,1.197-2.557h1.063
	c-0.332,3.086-1.07,5.264-2.214,6.533s-2.429,1.904-3.856,1.904c-1.524,0-2.795-0.693-3.812-2.08s-1.524-3.975-1.524-7.766
	c0-2.383,0.375-6.935,1.125-13.654h-7.625c-0.604,10.236-1.336,16.712-2.193,19.428c-0.857,2.715-2.036,4.072-3.537,4.072
	c-0.701,0-1.281-0.234-1.738-0.701c-0.459-0.469-0.688-1.053-0.688-1.755c0-0.507,0.078-0.945,0.233-1.315
	c0.214-0.508,0.671-1.221,1.371-2.141c1.187-1.586,2.014-3.248,2.48-4.986c0.836-2.97,1.381-7.17,1.634-12.602h-1.346
	c-1.426,0-2.488,0.232-3.19,0.697c-1.132,0.699-2.166,1.861-3.103,3.49h-1.143c1.094-3.367,2.373-5.693,3.838-6.978
	c1.113-0.974,2.677-1.46,4.688-1.46H509.432z"/>
<path d="M20.2,118.527l17.702,17.517c2.906,2.882,5.373,4.844,7.4,5.887s4.061,1.634,6.1,1.774v1.313H28.72v-1.313
	c1.359,0,2.338-0.228,2.936-0.685c0.598-0.456,0.896-0.977,0.896-1.563c0-0.538-0.117-1.029-0.352-1.475
	c-0.234-0.444-0.961-1.275-2.18-2.493l-16.458-16.285v15.375c0,3.112,0.351,5.008,1.054,5.686c0.982,0.96,2.341,1.439,4.073,1.439
	h1.686v1.313H0v-1.313h1.686c1.967,0,3.395-0.573,4.284-1.72c0.562-0.748,0.843-2.55,0.843-5.405v-30.813
	c0-2.41-0.152-4.013-0.456-4.809c-0.234-0.561-0.715-1.052-1.44-1.474c-1.03-0.562-2.107-0.843-3.23-0.843H0V97.33h20.375v1.313
	h-1.686c-1.92,0-3.337,0.562-4.249,1.685c-0.586,0.749-0.878,2.563-0.878,5.44v14.563l11.015-10.22
	c3.578-3.438,5.861-5.986,6.851-7.646c0.352-0.584,0.527-1.156,0.527-1.718c0-0.584-0.246-1.081-0.738-1.49
	c-0.492-0.408-1.324-0.613-2.496-0.613h-1.09V97.33h17.446v1.313c-1.027,0.023-1.972,0.164-2.835,0.42
	c-0.863,0.257-1.908,0.764-3.133,1.521c-1.226,0.758-2.725,1.965-4.498,3.62c-0.477,0.473-2.862,2.873-7.157,7.201L20.2,118.527z"/>
<g>
	<line x1="69.652" y1="127.018" x2="82.699" y2="127.018"/>
	<g>
		<line fill="none" x1="69.652" y1="127.018" x2="82.699" y2="127.018"/>
		<path fill="#221E1F" d="M69.558,128.014c4.349,0,8.698,0,13.046,0c1.28,0,1.478-1.992,0.189-1.992c-4.35,0-8.698,0-13.047,0
			C68.466,126.021,68.27,128.014,69.558,128.014L69.558,128.014z"/>
	</g>
</g>
<text transform="matrix(1 0 0 1 512.6992 18.0176)" font-family="'ArialMT'" font-size="21">+</text>
<path d="M509.432,108.174v4.25h-7.094c-0.688,4.477-1.031,8.766-1.031,12.871c0,2.014,0.35,3.455,1.051,4.324
	c0.699,0.87,1.576,1.305,2.627,1.305c0.836,0,1.565-0.293,2.188-0.881c0.623-0.588,1.021-1.439,1.197-2.557h1.063
	c-0.332,3.086-1.07,5.264-2.214,6.533s-2.429,1.904-3.856,1.904c-1.524,0-2.795-0.693-3.812-2.08s-1.524-3.975-1.524-7.766
	c0-2.383,0.375-6.935,1.125-13.654h-7.625c-0.604,10.236-1.336,16.712-2.193,19.428c-0.857,2.715-2.036,4.072-3.537,4.072
	c-0.701,0-1.281-0.234-1.738-0.701c-0.459-0.469-0.688-1.053-0.688-1.755c0-0.507,0.078-0.945,0.233-1.315
	c0.214-0.508,0.671-1.221,1.371-2.141c1.187-1.586,2.014-3.248,2.48-4.986c0.836-2.97,1.381-7.17,1.634-12.602h-1.346
	c-1.426,0-2.488,0.232-3.19,0.697c-1.132,0.699-2.166,1.861-3.103,3.49h-1.143c1.094-3.367,2.373-5.693,3.838-6.978
	c1.113-0.974,2.677-1.46,4.688-1.46H509.432z"/>
<text transform="matrix(1 0 0 1 512.6992 110.0176)" font-family="'ArialMT'" font-size="21">+</text>
<path d="M509.432,200.174v4.25h-7.094c-0.688,4.477-1.031,8.766-1.031,12.871c0,2.014,0.35,3.455,1.051,4.324
	c0.699,0.87,1.576,1.305,2.627,1.305c0.836,0,1.565-0.293,2.188-0.881c0.623-0.588,1.021-1.439,1.197-2.557h1.063
	c-0.332,3.086-1.07,5.264-2.214,6.533s-2.429,1.904-3.856,1.904c-1.524,0-2.795-0.693-3.812-2.08s-1.524-3.975-1.524-7.766
	c0-2.383,0.375-6.935,1.125-13.654h-7.625c-0.604,10.236-1.336,16.712-2.193,19.428c-0.857,2.715-2.036,4.072-3.537,4.072
	c-0.701,0-1.281-0.234-1.738-0.701c-0.459-0.469-0.688-1.053-0.688-1.755c0-0.507,0.078-0.945,0.233-1.315
	c0.214-0.508,0.671-1.221,1.371-2.141c1.187-1.586,2.014-3.248,2.48-4.986c0.836-2.97,1.381-7.17,1.634-12.602h-1.346
	c-1.426,0-2.488,0.232-3.19,0.697c-1.132,0.699-2.166,1.861-3.103,3.49h-1.143c1.094-3.367,2.373-5.693,3.838-6.978
	c1.113-0.974,2.677-1.46,4.688-1.46H509.432z"/>
<text transform="matrix(1 0 0 1 512.6992 193.0176)" font-family="'ArialMT'" font-size="18">_</text>
<text transform="matrix(1 0 0 1 45.6992 98.0176)" font-family="'ArialMT'" font-size="21">+</text>
</svg>
